<?xml version="1.0" encoding="UTF-8" standalone="no"?>
<svg
   width="9.6950512"
   height="12.209352"
   viewBox="5 4 10.77228 13.565948"
   fill="none"
   version="1.1"
   id="svg1"
   sodipodi:docname="moonbit-head.svg"
   inkscape:version="1.4 (e7c3feb1, 2024-10-09)"
   xmlns:inkscape="http://www.inkscape.org/namespaces/inkscape"
   xmlns:sodipodi="http://sodipodi.sourceforge.net/DTD/sodipodi-0.dtd"
   xmlns="http://www.w3.org/2000/svg"
   xmlns:svg="http://www.w3.org/2000/svg">
  <defs
     id="defs1" />
  <sodipodi:namedview
     id="namedview1"
     pagecolor="#ffffff"
     bordercolor="#000000"
     borderopacity="0.25"
     inkscape:showpageshadow="2"
     inkscape:pageopacity="0.0"
     inkscape:pagecheckerboard="0"
     inkscape:deskcolor="#d1d1d1"
     inkscape:zoom="16.857143"
     inkscape:cx="11.894068"
     inkscape:cy="12.338983"
     inkscape:window-width="1912"
     inkscape:window-height="1011"
     inkscape:window-x="1733"
     inkscape:window-y="35"
     inkscape:window-maximized="0"
     inkscape:current-layer="svg1"
     showguides="true" />
  <path
     fill-rule="evenodd"
     clip-rule="evenodd"
     d="m 10.892721,9.4163682 v 0 c 0.222382,-3.1006107 0.396768,-5.530736 2.175853,-5.4121317 2.235325,0.1490299 3.278496,5.0668952 2.384386,5.3649575 -0.60403,0.2012908 -1.179723,-0.4331822 -1.493755,-0.9346456 -0.06542,-0.1043744 -0.22503,-0.1041529 -0.281771,0.0057 l -1.540037,2.9698756 c -0.04271,0.08252 -9.11e-4,0.183582 0.08599,0.215682 1.38328,0.509606 2.335399,1.576734 2.335399,2.810648 0,1.728358 -1.868161,3.129494 -4.172669,3.129494 -2.3045027,0 -4.172662,-1.401136 -4.172662,-3.129494 0,-1.233914 0.9521409,-2.301042 2.3354132,-2.810648 0.087185,-0.03209 0.128726,-0.133158 0.085991,-0.215682 L 7.0948358,8.4400582 C 7.0381225,8.3306827 6.878454,8.3304594 6.8130681,8.4344746 6.4990034,8.9358828 5.9233397,9.5704431 5.3193343,9.3690749 4.4251977,9.0710133 5.4683634,4.1531851 7.7037534,4.0041634 9.4828246,3.885559 9.6571381,6.3156843 9.8796149,9.416328 v 0 0 c 0.040639,0.5665747 0.082898,1.155603 0.1368671,1.755489 0.0071,0.08116 0.07799,0.141454 0.159449,0.138362 0.06965,-0.0019 0.13974,-0.0029 0.210186,-0.0029 0.07047,0 0.140557,9.86e-4 0.210186,0.0029 0.08148,0.0022 0.152246,-0.05719 0.159551,-0.138362 0.05401,-0.599954 0.09617,-1.1889143 0.136867,-1.7555679 z M 9.3523854,15.500295 c 0.3349011,-0.159162 0.6710996,-0.319005 1.0337316,-0.319005 0.362654,0 0.698912,0.159843 1.033834,0.319081 0.139499,0.06632 0.278838,0.13256 0.419695,0.187048 0.150111,0.05812 0.313273,0.08999 0.483896,0.08999 0.74073,0 1.341222,-0.600486 1.341222,-1.341226 0,-0.740735 -0.600492,-1.341223 -1.341222,-1.341223 -0.04882,0 -0.09722,0.002 -0.144765,0.0077 -0.0017,2.86e-4 -0.0032,-0.0012 -0.0032,-0.0029 0,-0.0017 -0.0012,-0.0029 -0.003,-0.0029 H 8.4668303 l -0.016124,-7.9e-5 -0.016124,7.9e-5 H 8.3056494 c -0.00174,0 -0.00316,0.0015 -0.00316,0.0032 0,0.0017 -0.00124,0.003 -0.00291,0.0032 -0.6687643,0.07589 -1.1883818,0.643515 -1.1883818,1.332628 0,0.740665 0.6004808,1.341151 1.3412164,1.341151 0.1705432,0 0.3337036,-0.03186 0.4838245,-0.08991 0.1408521,-0.05445 0.2801239,-0.120728 0.4196932,-0.187049 z M 7.7883875,14.355846 c 0,0.34297 0.1596881,0.557832 0.4217289,0.557832 0.2627175,0 0.4216493,-0.214862 0.4216493,-0.557832 v -0.0012 c 0,-0.343653 -0.1589318,-0.557078 -0.4216493,-0.557078 -0.2620408,0 -0.4217289,0.213425 -0.4217289,0.557078 z m 0.6189464,0 c 0,0.239875 -0.071446,0.381932 -0.1972175,0.381932 -0.1251738,0 -0.1965383,-0.142057 -0.1965383,-0.381932 v -0.0012 c 0,-0.240633 0.071364,-0.381184 0.1965383,-0.381184 0.1257712,0 0.1972175,0.140551 0.1972175,0.381184 z m 0.6858854,-0.321652 v 0.852278 H 9.3154549 V 13.824465 H 9.0939551 l -0.2745336,0.190592 v 0.200235 l 0.2605287,-0.181098 z m 2.2372697,0.49958 v -0.341618 l 0.791832,-0.394899 v 0.275825 l -0.636591,0.286232 0.636591,0.285245 v 0.283133 z m 1.804549,-0.341618 v 0.341618 l -0.791905,0.393918 v -0.275827 l 0.635907,-0.285243 -0.635907,-0.286226 v -0.283139 z"
     fill="#211328"
     id="path1"
     style="stroke-width:0.753555" />
</svg>
